<svg width="68" height="68" viewBox="0 0 68 68" fill="none" xmlns="http://www.w3.org/2000/svg">
<path d="M29.7613 18.865C29.7613 16.6559 31.5522 14.865 33.7613 14.865H34.0478C36.257 14.865 38.0478 16.6559 38.0478 18.865V26.4509H29.7613V18.865Z" fill="url(#paint0_linear_1_197)"/>
<circle cx="33.9046" cy="36.6465" r="13.2805" fill="#6685F4"/>
<circle cx="34" cy="34" r="34" fill="url(#paint1_radial_1_197)"/>
<ellipse cx="33.9046" cy="32.3611" rx="10.2444" ry="8.99518" fill="url(#paint2_radial_1_197)"/>
<path d="M44.3488 41.5468C44.3488 44.8472 39.188 49.4192 34.0746 49.4192C28.9612 49.4192 23.4603 44.8472 23.4603 41.5467C23.4603 38.2463 28.9612 42.5484 34.0746 42.5484C39.188 42.5484 44.3488 38.2463 44.3488 41.5468Z" fill="url(#paint3_radial_1_197)"/>
<defs>
<linearGradient id="paint0_linear_1_197" x1="38.0478" y1="19.2393" x2="29.7613" y2="19.1452" gradientUnits="userSpaceOnUse">
<stop offset="0.114583" stop-color="#242424"/>
<stop offset="0.492654" stop-color="#6E6962" stop-opacity="0.85"/>
<stop offset="0.869792" stop-color="#212121"/>
</linearGradient>
<radialGradient id="paint1_radial_1_197" cx="0" cy="0" r="1" gradientUnits="userSpaceOnUse" gradientTransform="translate(34 34) rotate(90) scale(32.6052 34)">
<stop stop-color="#6F8EFA" stop-opacity="0.7"/>
<stop offset="1" stop-color="#85A0FF" stop-opacity="0"/>
</radialGradient>
<radialGradient id="paint2_radial_1_197" cx="0" cy="0" r="1" gradientUnits="userSpaceOnUse" gradientTransform="translate(33.9046 32.3611) rotate(43.0087) scale(9.06143 10.1627)">
<stop offset="0.328125" stop-color="#FEFBF1" stop-opacity="0.99"/>
<stop offset="1" stop-color="#FEFBF1" stop-opacity="0"/>
</radialGradient>
<radialGradient id="paint3_radial_1_197" cx="0" cy="0" r="1" gradientUnits="userSpaceOnUse" gradientTransform="translate(34.088 45.8586) rotate(90) scale(6.56814 16.3409)">
<stop stop-color="#1B2444" stop-opacity="0.7"/>
<stop offset="1" stop-color="#96ADFF" stop-opacity="0"/>
</radialGradient>
</defs>
</svg>
